<?xml version="1.0" encoding="UTF-8"?>
<svg xmlns="http://www.w3.org/2000/svg" xmlns:xlink="http://www.w3.org/1999/xlink" width="1024pt" height="1024pt" viewBox="0 0 1024 1024" version="1.1">
<g id="surface21">
<path style=" stroke:none;fill-rule:nonzero;fill:rgb(90.196079%,90.196079%,90.196079%);fill-opacity:1;" d="M 473.441406 247.679688 C 469.152344 251.703125 466.71875 257.320312 466.71875 263.199219 C 466.71875 269.078125 469.152344 274.699219 473.441406 278.71875 C 498.242188 303.023438 514.566406 334.664062 520 368.960938 C 517.121094 368.960938 515.519531 368.960938 514.078125 370.238281 L 482.71875 370.238281 C 472.320312 370.238281 463.519531 368.480469 454.558594 368.480469 C 427.839844 366.71875 411.519531 362.238281 401.28125 352.480469 C 397.207031 348.226562 391.570312 345.820312 385.679688 345.820312 C 379.789062 345.820312 374.15625 348.226562 370.078125 352.480469 C 365.84375 356.5 363.445312 362.082031 363.445312 367.921875 C 363.445312 373.757812 365.84375 379.339844 370.078125 383.359375 C 389.28125 402.71875 416 410.238281 451.519531 413.601562 C 461.867188 414.90625 472.292969 415.496094 482.71875 415.359375 L 524.320312 415.359375 L 524.320312 424.160156 C 524.476562 432.039062 523.890625 439.914062 522.558594 447.679688 C 522.558594 449.28125 520.960938 466.878906 520.960938 471.359375 C 519.457031 486.042969 519.457031 500.839844 520.960938 515.519531 C 521.988281 529.289062 527.625 542.308594 536.960938 552.480469 C 551.351562 565.65625 570.96875 571.546875 590.238281 568.480469 C 602.078125 568.480469 652.640625 561.601562 660.160156 560.320312 C 663.988281 559.132812 668 558.648438 672 558.878906 L 672 573.601562 C 672 576.480469 670.238281 610.398438 670.078125 619.199219 C 668.917969 633.4375 669.292969 647.761719 671.199219 661.921875 C 672.339844 679.761719 679.503906 696.683594 691.519531 709.921875 C 695.664062 714.347656 701.457031 716.855469 707.519531 716.855469 C 713.582031 716.855469 719.375 714.347656 723.519531 709.921875 C 727.765625 705.875 730.167969 700.265625 730.167969 694.398438 C 730.167969 688.535156 727.765625 682.925781 723.519531 678.878906 C 717.566406 672.664062 713.949219 664.578125 713.28125 656 C 711.933594 644.265625 711.507812 632.441406 712 620.640625 C 712 611.839844 713.921875 579.359375 713.921875 576.480469 L 713.921875 561.761719 C 745.144531 566.582031 773.804688 581.871094 795.199219 605.121094 C 799.273438 609.375 804.910156 611.78125 810.800781 611.78125 C 816.691406 611.78125 822.324219 609.375 826.398438 605.121094 C 830.636719 601.101562 833.035156 595.519531 833.035156 589.679688 C 833.035156 583.839844 830.636719 578.257812 826.398438 574.238281 C 796.648438 541.84375 756.304688 521.136719 712.640625 515.839844 C 711.203125 478.789062 696.230469 443.554688 670.558594 416.800781 C 642.558594 388.480469 611.519531 376.480469 564 371.679688 C 559.445312 324.484375 538.300781 280.429688 504.320312 247.359375 C 500.191406 243.289062 494.609375 241.03125 488.8125 241.09375 C 483.015625 241.152344 477.480469 243.523438 473.441406 247.679688 Z M 566.878906 423.679688 L 566.878906 414.878906 C 594.488281 416.632812 620.628906 427.949219 640.800781 446.878906 C 658.792969 464.421875 669.191406 488.316406 669.761719 513.441406 C 664.445312 514.054688 659.074219 514.054688 653.761719 513.441406 C 644.960938 514.71875 597.28125 521.761719 586.878906 521.601562 C 576.480469 521.441406 569.121094 521.601562 566.238281 518.558594 C 563.933594 514.984375 562.457031 510.941406 561.921875 506.71875 C 560 494.398438 566.878906 417.921875 566.878906 423.839844 Z M 539.359375 629.601562 C 539.296875 637.070312 543.753906 643.839844 550.644531 646.726562 C 557.535156 649.617188 565.488281 648.054688 570.769531 642.769531 C 576.054688 637.488281 577.617188 629.535156 574.726562 622.644531 C 571.839844 615.753906 565.070312 611.296875 557.601562 611.359375 C 547.5625 611.445312 539.445312 619.5625 539.359375 629.601562 Z M 705.761719 359.039062 C 728.910156 359.039062 747.679688 340.273438 747.679688 317.121094 C 747.679688 293.96875 728.910156 275.199219 705.761719 275.199219 C 682.609375 275.199219 663.839844 293.96875 663.839844 317.121094 C 663.753906 328.265625 668.144531 338.976562 676.023438 346.855469 C 683.902344 354.738281 694.617188 359.125 705.761719 359.039062 Z M 705.761719 359.039062 "/>
<path style=" stroke:none;fill-rule:nonzero;fill:rgb(0%,0%,0%);fill-opacity:1;" d="M 951.199219 107.679688 C 945.570312 101.996094 937.917969 98.773438 929.921875 98.71875 L 94.398438 98.71875 C 77.621094 98.894531 64.085938 112.5 64 129.28125 L 64 731.679688 C 63.820312 748.496094 77.265625 762.296875 94.078125 762.558594 L 459.679688 762.558594 C 472.253906 762.558594 482.472656 772.707031 482.558594 785.28125 L 482.558594 859.679688 C 482.558594 872.316406 472.316406 882.558594 459.679688 882.558594 L 256 882.558594 C 239.183594 882.648438 225.601562 896.304688 225.601562 913.121094 C 225.511719 930.023438 239.097656 943.824219 256 944 L 760 944 C 776.789062 943.910156 790.328125 930.230469 790.238281 913.441406 C 790.328125 896.6875 776.914062 882.984375 760.160156 882.71875 L 565.921875 882.71875 C 553.597656 882.203125 543.902344 872.011719 544 859.679688 L 544 785.28125 C 544.085938 772.769531 554.207031 762.648438 566.71875 762.558594 L 745.921875 762.558594 C 758.242188 762.128906 768.007812 752.011719 768 739.679688 C 767.910156 727.105469 757.695312 716.960938 745.121094 716.960938 L 130.878906 716.960938 C 118.519531 716.613281 108.707031 706.445312 108.800781 694.078125 L 108.800781 167.039062 C 108.671875 160.945312 111.011719 155.058594 115.292969 150.71875 C 119.570312 146.378906 125.425781 143.957031 131.519531 144 L 892.480469 144 C 898.535156 143.957031 904.351562 146.332031 908.648438 150.597656 C 912.945312 154.863281 915.359375 160.667969 915.359375 166.71875 L 915.359375 694.078125 C 915.359375 706.714844 905.117188 716.960938 892.480469 716.960938 L 854.878906 716.960938 C 842.304688 716.960938 832.089844 727.105469 832 739.679688 C 832 752.316406 842.242188 762.558594 854.878906 762.558594 L 929.601562 762.558594 C 946.378906 762.386719 959.914062 748.78125 960 732 L 960 129.441406 C 959.929688 121.332031 956.785156 113.558594 951.199219 107.679688 Z M 951.199219 107.679688 "/>
<path style=" stroke:none;fill-rule:nonzero;fill:rgb(0%,0%,0%);fill-opacity:1;" d="M 178.238281 504 L 325.601562 504 C 339.207031 504 350.238281 492.96875 350.238281 479.359375 C 350.238281 465.75 339.207031 454.71875 325.601562 454.71875 L 178.238281 454.71875 C 164.632812 454.71875 153.601562 465.75 153.601562 479.359375 C 153.601562 492.96875 164.632812 504 178.238281 504 Z M 178.238281 664 L 421.601562 664 C 435.207031 664 446.238281 652.96875 446.238281 639.359375 C 446.238281 625.75 435.207031 614.71875 421.601562 614.71875 L 178.238281 614.71875 C 164.632812 614.71875 153.601562 625.75 153.601562 639.359375 C 153.601562 652.96875 164.632812 664 178.238281 664 Z M 178.238281 584 L 325.601562 584 C 339.207031 584 350.238281 572.96875 350.238281 559.359375 C 350.238281 545.75 339.207031 534.71875 325.601562 534.71875 L 178.238281 534.71875 C 164.632812 534.71875 153.601562 545.75 153.601562 559.359375 C 153.601562 572.96875 164.632812 584 178.238281 584 Z M 178.238281 584 "/>
<path style=" stroke:none;fill-rule:nonzero;fill:rgb(87.843138%,0%,15.294118%);fill-opacity:1;" d="M 814.878906 420.640625 C 825.585938 420.703125 835.273438 414.296875 839.398438 404.417969 C 843.527344 394.539062 841.277344 383.144531 833.707031 375.574219 C 826.136719 368.003906 814.742188 365.753906 804.863281 369.878906 C 794.984375 374.007812 788.574219 383.691406 788.640625 394.398438 C 788.640625 408.890625 800.386719 420.640625 814.878906 420.640625 Z M 814.878906 420.640625 "/>
<path style=" stroke:none;fill-rule:nonzero;fill:rgb(0%,0%,0%);fill-opacity:1;" d="M 240.800781 388.640625 C 198.914062 388.640625 164.960938 354.683594 164.960938 312.800781 C 164.960938 270.914062 198.914062 236.960938 240.800781 236.960938 C 282.683594 236.960938 316.640625 270.914062 316.640625 312.800781 C 316.640625 354.683594 282.683594 388.640625 240.800781 388.640625 Z M 240.800781 278.398438 C 226.808594 278.398438 214.195312 286.835938 208.855469 299.773438 C 203.515625 312.707031 206.503906 327.582031 216.417969 337.453125 C 226.335938 347.324219 241.226562 350.242188 254.136719 344.84375 C 267.046875 339.445312 275.425781 326.792969 275.359375 312.800781 C 275.359375 303.648438 271.714844 294.875 265.226562 288.417969 C 258.742188 281.964844 249.949219 278.359375 240.800781 278.398438 Z M 240.800781 278.398438 "/>
<path style=" stroke:none;fill-rule:nonzero;fill:rgb(87.843138%,0%,15.294118%);fill-opacity:1;" d="M 537.441406 199.679688 C 533.152344 203.703125 530.71875 209.320312 530.71875 215.199219 C 530.71875 221.078125 533.152344 226.699219 537.441406 230.71875 C 562.242188 255.023438 578.566406 286.664062 584 320.960938 C 581.121094 320.960938 579.519531 320.960938 578.078125 322.238281 L 546.71875 322.238281 C 536.320312 322.238281 527.519531 320.480469 518.558594 320.480469 C 491.839844 318.71875 475.519531 314.238281 465.28125 304.480469 C 461.207031 300.226562 455.570312 297.820312 449.679688 297.820312 C 443.789062 297.820312 438.15625 300.226562 434.078125 304.480469 C 429.84375 308.5 427.445312 314.082031 427.445312 319.921875 C 427.445312 325.757812 429.84375 331.339844 434.078125 335.359375 C 453.28125 354.71875 480 362.238281 515.519531 365.601562 C 525.867188 366.90625 536.292969 367.496094 546.71875 367.359375 L 588.320312 367.359375 L 588.320312 376.160156 C 588.476562 384.039062 587.890625 391.914062 586.558594 399.679688 C 586.558594 401.28125 584.960938 418.878906 584.960938 423.359375 C 583.457031 438.042969 583.457031 452.839844 584.960938 467.519531 C 585.988281 481.289062 591.625 494.308594 600.960938 504.480469 C 615.351562 517.65625 634.96875 523.546875 654.238281 520.480469 C 666.078125 520.480469 716.640625 513.601562 724.160156 512.320312 C 727.988281 511.132812 732 510.648438 736 510.878906 L 736 525.601562 C 736 528.480469 734.238281 562.398438 734.078125 571.199219 C 732.917969 585.4375 733.292969 599.761719 735.199219 613.921875 C 736.339844 631.761719 743.503906 648.683594 755.519531 661.921875 C 759.664062 666.347656 765.457031 668.855469 771.519531 668.855469 C 777.582031 668.855469 783.375 666.347656 787.519531 661.921875 C 791.765625 657.875 794.167969 652.265625 794.167969 646.398438 C 794.167969 640.535156 791.765625 634.925781 787.519531 630.878906 C 781.566406 624.664062 777.949219 616.578125 777.28125 608 C 775.933594 596.265625 775.507812 584.441406 776 572.640625 C 776 563.839844 777.921875 531.359375 777.921875 528.480469 L 777.921875 513.761719 C 809.144531 518.582031 837.804688 533.871094 859.199219 557.121094 C 863.273438 561.375 868.910156 563.78125 874.800781 563.78125 C 880.691406 563.78125 886.324219 561.375 890.398438 557.121094 C 894.636719 553.101562 897.035156 547.519531 897.035156 541.679688 C 897.035156 535.839844 894.636719 530.257812 890.398438 526.238281 C 860.648438 493.84375 820.304688 473.136719 776.640625 467.839844 C 775.203125 430.789062 760.230469 395.554688 734.558594 368.800781 C 706.558594 340.480469 675.519531 328.480469 628 323.679688 C 623.445312 276.484375 602.300781 232.429688 568.320312 199.359375 C 564.191406 195.289062 558.609375 193.03125 552.8125 193.09375 C 547.015625 193.152344 541.480469 195.523438 537.441406 199.679688 Z M 630.878906 375.679688 L 630.878906 366.878906 C 658.488281 368.632812 684.628906 379.949219 704.800781 398.878906 C 722.792969 416.421875 733.191406 440.316406 733.761719 465.441406 C 728.445312 466.054688 723.074219 466.054688 717.761719 465.441406 C 708.960938 466.71875 661.28125 473.761719 650.878906 473.601562 C 640.480469 473.441406 633.121094 473.601562 630.238281 470.558594 C 627.933594 466.984375 626.457031 462.941406 625.921875 458.71875 C 624 446.398438 630.878906 369.921875 630.878906 375.839844 Z M 603.359375 581.601562 C 603.296875 589.070312 607.753906 595.839844 614.644531 598.726562 C 621.535156 601.617188 629.488281 600.054688 634.769531 594.769531 C 640.054688 589.488281 641.617188 581.535156 638.726562 574.644531 C 635.839844 567.753906 629.070312 563.296875 621.601562 563.359375 C 611.5625 563.445312 603.445312 571.5625 603.359375 581.601562 Z M 769.761719 311.039062 C 792.910156 311.039062 811.679688 292.273438 811.679688 269.121094 C 811.679688 245.96875 792.910156 227.199219 769.761719 227.199219 C 746.609375 227.199219 727.839844 245.96875 727.839844 269.121094 C 727.753906 280.265625 732.144531 290.976562 740.023438 298.855469 C 747.902344 306.738281 758.617188 311.125 769.761719 311.039062 Z M 769.761719 311.039062 "/>
</g>
</svg>
